<?xml version="1.0" encoding="UTF-8"?>
<svg id="Layer_2" data-name="Layer 2" xmlns="http://www.w3.org/2000/svg" viewBox="0 0 22.5 20.42">
  <defs>
    <style>
      .cls-1 {
        fill: #fff;
        stroke: #000;
        stroke-miterlimit: 10;
        stroke-width: .5px;
      }
    </style>
  </defs>
  <g id="Layer_1-2" data-name="Layer 1">
    <path class="cls-1" d="M11.25,20.1c-.8-.63-1.67-1.13-2.6-1.48s-1.9-.53-2.9-.53c-.7,0-1.39.09-2.06.28s-1.32.44-1.94.78c-.35.18-.69.18-1.01-.03s-.49-.49-.49-.88V6.2c0-.18.05-.36.14-.53s.23-.29.41-.38c.77-.4,1.57-.7,2.4-.9.83-.2,1.68-.3,2.55-.3.97,0,1.91.13,2.84.38s1.81.63,2.66,1.13v12.1c.85-.53,1.74-.93,2.68-1.2s1.88-.4,2.83-.4c.6,0,1.19.05,1.76.15s1.15.25,1.74.45V4.7c.25.08.5.17.74.26s.48.2.71.34c.18.08.32.21.41.38s.14.34.14.53v12.05c0,.38-.16.68-.49.88s-.66.21-1.01.03c-.62-.33-1.26-.59-1.94-.78s-1.36-.28-2.06-.28c-1,0-1.97.18-2.9.53s-1.8.84-2.6,1.48Z"/>
    <polygon class="cls-1" points="13.25 15.1 13.25 5.6 18.25 .6 18.25 10.6 13.25 15.1"/>
    <path d="M9.25,16.73V6.83c-.55-.23-1.12-.41-1.71-.54s-1.19-.19-1.79-.19-1.22.06-1.8.18-1.15.29-1.7.53v9.93c.58-.22,1.16-.38,1.74-.48s1.16-.15,1.76-.15,1.19.05,1.76.15,1.15.26,1.74.48Z"/>
  </g>
</svg>