<?xml version="1.0" encoding="UTF-8"?>
<svg id="Layer_2" data-name="Layer 2" xmlns="http://www.w3.org/2000/svg" viewBox="0 0 12.5 14.02">
  <defs>
    <style>
      .cls-1 {
        fill: #fff;
      }
    </style>
  </defs>
  <g id="icon_layer" data-name="icon layer">
    <g id="key">
      <path id="activation_key_1" data-name="activation key 1" class="cls-1" d="M6.38,14.02h-.27c-.17-.08-.36-.23-.36-.45v-1.54s-1.19.88-1.19.88c-.23.17-.54.14-.72-.09s-.13-.53.1-.7l1.81-1.35v-2.87s-2.46,1.47-2.46,1.47l-.23,2.25c-.03.29-.29.48-.57.45s-.46-.28-.43-.57l.15-1.48-1.29.77c-.24.14-.54.07-.69-.16-.13-.2-.1-.52.13-.66l1.33-.81-1.4-.57c-.26-.11-.35-.42-.25-.65s.37-.38.63-.27l2.1.85,2.5-1.5-2.5-1.5-2.1.85c-.28.1-.56-.05-.65-.31s.04-.53.3-.63l1.36-.56-1.28-.77c-.25-.15-.33-.46-.18-.7s.45-.3.7-.15l1.27.76-.15-1.51c-.03-.28.19-.51.46-.53.24-.02.5.15.53.42l.24,2.27,2.46,1.47v-2.87s-1.79-1.34-1.79-1.34c-.24-.17-.28-.49-.11-.71s.48-.26.72-.09l1.18.88V.48c0-.28.27-.49.52-.48.28.01.49.23.49.52v1.48s1.2-.9,1.2-.9c.22-.17.53-.11.69.09.17.22.14.53-.08.71l-1.81,1.36v2.87s2.46-1.48,2.46-1.48l.23-2.23c.03-.29.28-.48.55-.45s.47.27.44.55l-.15,1.48,1.32-.79c.24-.15.56-.03.68.2.14.25.04.54-.2.69l-1.27.76,1.38.57c.26.11.36.4.27.64s-.37.4-.63.3l-2.1-.85-2.5,1.5,2.5,1.5,2.1-.85c.27-.1.54.04.64.28s0,.54-.25.65l-1.4.58,1.27.76c.25.15.34.45.19.7-.13.23-.44.32-.68.17l-1.3-.78.15,1.48c.03.29-.18.52-.45.55-.25.03-.52-.15-.55-.43l-.23-2.25-2.46-1.48v2.87s1.78,1.34,1.78,1.34c.24.17.3.48.13.72-.14.2-.46.28-.68.11l-1.22-.91v1.48c0,.21-.1.38-.28.47l-.09.05Z"/>
    </g>
  </g>
</svg>