<?xml version="1.0" encoding="UTF-8"?>
<svg id="Layer_2" data-name="Layer 2" xmlns="http://www.w3.org/2000/svg" viewBox="0 0 18.55 18.68">
  <defs>
    <style>
      .cls-1 {
        fill: #fff;
      }
    </style>
  </defs>
  <g id="icon_layer" data-name="icon layer">
    <g id="jupiter_next" data-name="jupiter next">
      <g id="jupiter_next_ground_floor" data-name="jupiter next ground floor">
        <g id="elevator_icon" data-name="elevator icon">
          <g>
            <path class="cls-1" d="M5.85,5.82v12.79l-.07.07h-3.78c-.97,0-2-.92-2-1.91V5.89l.07-.07h5.78Z"/>
            <path class="cls-1" d="M12.95,5.82v11.22c0,.82-1.18,1.64-1.96,1.64h-3.78l-.07-.07V5.82h5.8Z"/>
            <path class="cls-1" d="M12.95,4.47H0V1.97C0,.81,1.1.12,2.13.06c2.99-.18,6.21.1,9.22.05.64.05,1.6.96,1.6,1.59v2.77Z"/>
            <path class="cls-1" d="M15.14,10.33c.51-.03.98.81,1.39,1.07.09.02.8-.8.96-.91.67-.47,1.41.32.83,1.05-.23.29-.97,1.04-1.26,1.26-.33.25-.61.34-.97.07-.29-.22-1.19-1.12-1.42-1.42-.35-.45-.08-1.08.46-1.11Z"/>
            <path class="cls-1" d="M16.36,5.74c.28-.06.46.03.68.2s1.36,1.31,1.45,1.52c.25.57-.27,1.11-.86.91-.25-.08-.94-.98-1.06-1.01-.51.26-.97,1.3-1.64,1.01-.4-.17-.53-.65-.29-1.01.15-.22,1.22-1.28,1.46-1.47.07-.06.17-.13.26-.15Z"/>
          </g>
        </g>
      </g>
    </g>
  </g>
</svg>