<?xml version="1.0" encoding="UTF-8"?>
<svg id="Layer_2" data-name="Layer 2" xmlns="http://www.w3.org/2000/svg" viewBox="0 0 11.82 16.63">
  <defs>
    <style>
      .cls-1 {
        fill: #fff;
      }
    </style>
  </defs>
  <g id="icon_layer" data-name="icon layer">
    <g id="key">
      <path id="coffee_key" data-name="coffee key" class="cls-1" d="M5.89,4.87c-.16.79-.99.7-1.04,1.3-.3-.35-.29-.91,0-1.3.35-.48-.49-.57-1.05-1.24-.59-.7-.64-1.67-.18-2.51S4.91-.07,5.68.01c-.57.44-.99,1-1.25,1.63s-.08,1.19.44,1.49c.69.4,1.17.92,1.01,1.74ZM7.29,4.45c-.17-.88-1-1.34-.31-2.55-.72.03-1.14.8-1.06,1.56.1.85.64,1.19.21,1.75-.13.17-.21.46-.18.67.04.3.3.48.56.35.63-.32.92-1.04.78-1.77ZM3.2,3.59c-.69-.52-.35-1.49-.61-1.5-.33-.01-.93,1.48.09,2.45.29.28.35.61.13.99-.11.18-.04.52.09.65s.38.16.55.05c.33-.22.51-.61.54-1.06.03-.68-.31-1.23-.78-1.58ZM8.45,13.94l.45.49c.52.56,1.36.36,1.79-.28.78-1.17,1.12-3.62,1.13-5.14,0-.58-.31-1.12-.76-1.33-.53-.24-1.08-.07-1.52.32-.2-.33-.48-.59-.85-.74-2.47-.98-5.16-.99-7.64-.05-.38.15-.8.43-.97.83-.36,2.75.42,6.16,2.7,7.54-.16.13-.3.3-.31.47-.03.38.37.58.86.58h3.18c.21,0,.43-.2.47-.37.06-.27-.03-.47-.2-.66.74-.36,1.24-.93,1.65-1.65ZM9.18,12.32c.26-.77.37-1.52.46-2.34.04-.31.22-.66.35-.95.11-.23.43-.39.65-.34.09.02.19.27.19.37-.07,1.1-.2,2.11-.45,3.17-.13.56-.43,1.37-.71,1.36-.32-.01-.58-.65-.48-1.27Z"/>
    </g>
  </g>
</svg>