<?xml version="1.0" encoding="UTF-8"?>
<svg id="Layer_2" data-name="Layer 2" xmlns="http://www.w3.org/2000/svg" viewBox="0 0 16.44 14.97">
  <defs>
    <style>
      .cls-1 {
        fill: #fff;
      }
    </style>
  </defs>
  <g id="icon_layer" data-name="icon layer">
    <g id="key">
      <path class="cls-1" d="M13,7.52l.26,5.96c.03.61-3.34,1.31-4.45,1.45-1.4.18-3.81-.48-5.23-1.02-.21-.08-.44-.3-.43-.52l.27-5.91c-.2.14-.35.25-.47.28-.13.03-.41-.09-.52-.2L.2,5.33c-.33-.33-.21-.64.02-.96l1.9-2.68c.3-.42.7-.84,1.11-1.14L5.97.01c.26-.05.46.05.68.17,1,.5,2.12.5,3.11.01.22-.11.42-.23.66-.18l2.4.45c.37.07.66.26.91.54.87,1,1.58,2.08,2.33,3.19.14.21.4.44.37.71-.05.38-.39.59-.62.83l-1.34,1.35-.48.48c-.09.09-.31.21-.43.21-.14,0-.33-.11-.56-.24Z"/>
    </g>
  </g>
</svg>