<?xml version="1.0" encoding="UTF-8"?>
<svg id="Layer_2" data-name="Layer 2" xmlns="http://www.w3.org/2000/svg" viewBox="0 0 14.13 14.14">
  <defs>
    <style>
      .cls-1 {
        fill: #fff;
      }
    </style>
  </defs>
  <g id="icon_layer" data-name="icon layer">
    <g id="key">
      <path class="cls-1" d="M7.51,14.14h-.88s-.13-.02-.13-.02C3.06,13.85.29,11.09.02,7.64l-.02-.13v-.89s.03-.15.03-.15C.31,3.06,3.03.32,6.44.03l.24-.02c.27-.02.52-.01.8,0,3.57.2,6.44,3.08,6.65,6.65v.77s-.02.27-.02.27c-.3,3.41-3.03,6.14-6.44,6.42-.06,0-.11.01-.16.02Z"/>
      <polygon points="8.7 11.42 8.7 8.71 11.42 8.71 11.42 5.44 8.7 5.44 8.7 2.73 5.43 2.73 5.43 5.44 2.72 5.44 2.72 8.71 5.43 8.71 5.43 11.42 8.7 11.42"/>
    </g>
  </g>
</svg>