<?xml version="1.0" encoding="UTF-8"?>
<svg id="Layer_2" data-name="Layer 2" xmlns="http://www.w3.org/2000/svg" viewBox="0 0 16.44 14.97">
  <defs>
    <style>
      .cls-1 {
        fill: #fff;
      }
    </style>
  </defs>
  <g id="icon_layer" data-name="icon layer">
    <g id="key">
      <path d="M13,7.52l.26,5.96c.03.61-3.34,1.31-4.45,1.45-1.4.18-3.81-.48-5.23-1.02-.21-.08-.44-.3-.43-.52l.27-5.91c-.2.14-.35.25-.47.28-.13.03-.41-.09-.52-.2L.2,5.33c-.33-.33-.21-.64.02-.96l1.9-2.68c.3-.42.7-.84,1.11-1.14L5.97.01c.26-.05.46.05.68.17,1,.5,2.12.5,3.11.01.22-.11.42-.23.66-.18l2.4.45c.37.07.66.26.91.54.87,1,1.58,2.08,2.33,3.19.14.21.4.44.37.71-.05.38-.39.59-.62.83l-1.34,1.35-.48.48c-.09.09-.31.21-.43.21-.14,0-.33-.11-.56-.24Z"/>
      <path class="cls-1" d="M12.8,5.94l.7.64.75-.81,1.05-1-1.75-2.43-.8-.87-1.78-.29c-.26,1.3-1.1,2.27-2.34,2.69h-.88c-1.23-.43-2.06-1.43-2.32-2.7l-1.85.32c-.91,1.06-1.74,2.14-2.44,3.28l1.78,1.78c.41-.5,1.01-.89,1.33-.62.09.08.16.27.22.43l-.09,2.55-.21,4.12c1.33.44,2.65.77,4.05.92,1.4-.17,2.72-.48,4.02-.93l-.3-6.57c0-.2.13-.45.25-.53s.49-.08.61.03Z"/>
      <path class="cls-1" d="M9.66,1.83l.18-.51c-1.13.36-2.17.35-3.28,0l.2.51c.47.11.96.31,1.46.3s.94-.19,1.43-.3Z"/>
    </g>
  </g>
</svg>