<?xml version="1.0" encoding="UTF-8"?>
<svg id="Layer_2" data-name="Layer 2" xmlns="http://www.w3.org/2000/svg" viewBox="0 0 14.26 14.28">
  <defs>
    <style>
      .cls-1 {
        fill: #fff;
      }
    </style>
  </defs>
  <g id="icon_layer" data-name="icon layer">
    <g id="key">
      <g id="stage_key" data-name="stage key">
        <g>
          <path class="cls-1" d="M12.91,8.02v-2.59l-4.6,1.38-.02,5.81c-.29,1.95-2.96,2.3-3.7.43-.59-1.5.83-2.98,2.35-2.54v-5.85c0-.19.28-.51.48-.53,1.95-.46,3.94-1.27,5.89-1.69.51-.11.85.07.94.61v6.94c-.14,1.91-2.67,2.48-3.59.86-.87-1.54.56-3.29,2.24-2.83Z"/>
          <path class="cls-1" d="M3.85,2.29v5.81c0,.27-.26.8-.44,1.01C2.21,10.56-.13,9.6,0,7.73c.09-1.22,1.29-2.02,2.46-1.7V.89c0-.08.05-.34.08-.42C2.68.15,3.06-.03,3.39,0c.52.05.62.49.9.82.76.91,2.09,1.01,2.09,2.53,0,.51-.47,1.73-.96,1.94-.57.23-1.13-.33-.9-.9.05-.13.21-.29.28-.42.6-1.09-.29-1.11-.95-1.67Z"/>
        </g>
      </g>
    </g>
  </g>
</svg>