<?xml version="1.0" encoding="UTF-8"?>
<svg id="Layer_2" data-name="Layer 2" xmlns="http://www.w3.org/2000/svg" viewBox="0 0 20.56 11.05">
  <defs>
    <style>
      .cls-1 {
        fill: #fff;
      }
    </style>
  </defs>
  <g id="icon_layer" data-name="icon layer">
    <g id="key">
      <path id="command_center_key" data-name="command center key" class="cls-1" d="M20.24,9.5c-.27.26-1.41,0-1.82.13-.32.1-.99,1.15-1.43,1.29-4.62.3-9.28-.07-13.92.03-.53-.13-.93-1.11-1.34-1.29s-1.23.17-1.52-.38C.12,9.11,0,8.06,0,7.84c0-.34.27-.61.28-.91.02-.38-.19-.97-.2-1.36,0-1.4.45-2.07,1.28-3.09C1.7,2.08,3.54.08,3.89,0h12.59c.35.09,1.27,1.19,1.57,1.52,1.01,1.12,2.12,2.14,1.96,3.78-.03.34-.29.68-.26.88.07.45.73,1.18.8,1.75.05.4,0,1.28-.3,1.57ZM18.97,3.91c-.1-.11-.49-.21-.65-.21H1.68c-.78.09-.81,1.28-.77,1.91.33-.23.45-1.13.66-1.34.08-.08.27-.1.39-.11,3.54-.38,7.76.28,11.36,0,1.25-.1,2.65-.17,3.91-.1.8.05,1.66.03,1.9.91.14,0-.05-.95-.16-1.07ZM18,4.8c-.05.24.19.22.32.36.04-.13-.21-.47-.32-.36ZM16.45,4.89l-14.22.09c-.12,0-.16.07-.22.15-.45.58-.78,1.91-1.19,2.58.16-.01.35.03.5,0,.45-.08.88-2.23,1.66-2.25,3.49.15,7.25-.27,10.7-.03.24.02.65.05.83.21.28.24,1.03,1.99,1.13,2.05h.53c-.07-.29-.35-.42-.47-.74-.19-.48-.15-1.01.13-1.46l.62-.6ZM18.08,6.34c0-.49-.4-.89-.89-.89s-.89.4-.89.89.4.89.89.89.89-.4.89-.89ZM8.45,6.16c-1.12-.26-.87.78-1.09,1.54,1.17.25.78-.79,1.09-1.54ZM9.82,6.16h-.73c.03.47-.15.96-.18,1.41-.01.19,0,.12.13.14.24.03.53-.02.78,0v-1.54ZM10.54,6.16v1.54l1-.05-.18-1.5h-.82ZM12.8,6.17h-.8c.14.38.09,1.04.19,1.38.09.28.83.1,1.08.15l-.47-1.53ZM14.81,7.7l-.77-1.45-.59-.09c.43.69.23,1.8,1.36,1.54ZM19.63,7.7l-.77-1.55-.21.88-.47.66h1.45ZM3.73,6.25c-.25.02-.58-.08-.77.09l-.68,1.36.82-.04.63-1.41ZM5.37,6.25h-.9c0,.28-.68,1.34-.56,1.45l1-.04.45-1.41ZM6.91,6.25h-.81s-.38,1.45-.38,1.45h.91s.27-1.45.27-1.45ZM.82,8.43v.46h18.99v-.46H.82Z"/>
    </g>
  </g>
</svg>